<svg xmlns="http://www.w3.org/2000/svg" viewBox="0 0 20.26 10.34"><path d="M19.77.25a1.54,1.54,0,0,0-.52-.18A4.38,4.38,0,0,0,18.49,0a2.71,2.71,0,0,0-1.21.26,5.48,5.48,0,0,0-1.7,1.28,1.41,1.41,0,0,0-.49.16,3.21,3.21,0,0,0-.41.26.71.71,0,0,0-.62-.38l-.2,0a.72.72,0,0,0-.39.3,2.31,2.31,0,0,0-.37,0A2.79,2.79,0,0,0,12,2.12a5.3,5.3,0,0,0-1.7,1.14A6.21,6.21,0,0,1,8.4,4.52a14.05,14.05,0,0,1-3,.85l-2.28.36L1.8,5.92A7.1,7.1,0,0,0,1,6.09a1.24,1.24,0,0,0-.92,1,1.09,1.09,0,0,0,.13.77,1.26,1.26,0,0,0,.43.43,3.84,3.84,0,0,0,1.19.5A5.29,5.29,0,0,1,3,9.24,13.11,13.11,0,0,0,4.89,10a7.18,7.18,0,0,0,2.17.33l.6,0a11.64,11.64,0,0,0,3.71-1l.49-.22c.23-.1.47-.21.71-.3a12.45,12.45,0,0,0,2.36-1.1A4,4,0,0,0,16.3,6.47a1.8,1.8,0,0,0,.29-1.38A.79.79,0,0,0,17,4.38a.7.7,0,0,0-.26-.47,2,2,0,0,0,.25-.86A.5.5,0,0,1,17,2.9l.15-.15A2.61,2.61,0,0,1,19,1.92l.3,0h.12a.78.78,0,0,0,.78-.66A1,1,0,0,0,19.77.25Zm-4,5.9a3.42,3.42,0,0,1-1.17,1.07,11.89,11.89,0,0,1-2.26,1c-.42.16-.82.36-1.23.53a11.23,11.23,0,0,1-3.51.91l-.56,0a6.76,6.76,0,0,1-2-.3A11.41,11.41,0,0,1,3.3,8.7a7.36,7.36,0,0,0-1.38-.51,3.33,3.33,0,0,1-1-.4.91.91,0,0,1-.24-.24.41.41,0,0,1-.07-.32.67.67,0,0,1,.49-.56,6.91,6.91,0,0,1,.79-.16C3.08,6.33,4.27,6.17,5.46,6a14.53,14.53,0,0,0,3.17-.9,6.55,6.55,0,0,0,2.1-1.38,4.75,4.75,0,0,1,1.52-1,2.12,2.12,0,0,1,.85-.2,1.24,1.24,0,0,1,.33,0l.2.06a.25.25,0,0,0,0,.17A3.7,3.7,0,0,0,15.69,5l.11,0a.35.35,0,0,0,.11,0A1.19,1.19,0,0,1,15.79,6.15Zm3.67-4.8h-.05l-.37,0a3.21,3.21,0,0,0-2.26,1,1.57,1.57,0,0,0-.18.19.8.8,0,0,0-.25.51,1.26,1.26,0,0,1-.56,1c-.09.07-.09.11,0,.16s.29.11.43.17.11.06.11.09,0,.13-.07.14a.68.68,0,0,1-.2.07.3.3,0,0,0-.16-.23,3.06,3.06,0,0,1-1.73-1.83.29.29,0,0,0-.27-.19v0c0-.06.06-.16.11-.17h0c.07,0,.1.08.12.15a.56.56,0,0,0,0,.12c.08.18.19.27.31.27a.52.52,0,0,0,.29-.13c.18-.13.37-.26.56-.37a1.13,1.13,0,0,1,.37-.1A.3.3,0,0,0,16,2,5.18,5.18,0,0,1,17.54.8a2.14,2.14,0,0,1,.95-.2,3.68,3.68,0,0,1,.66.06,1.38,1.38,0,0,1,.34.12.37.37,0,0,1,.16.39C19.63,1.3,19.57,1.35,19.46,1.35ZM8,6.23a.29.29,0,0,1-.17.39A7.82,7.82,0,0,1,5,7.13a.29.29,0,0,1-.32-.3.31.31,0,0,1,.3-.3H5a7.35,7.35,0,0,0,2.57-.47A.29.29,0,0,1,8,6.23Zm5.93-2.14a.31.31,0,0,1-.14.41.31.31,0,0,1-.13,0,.29.29,0,0,1-.27-.17,1.59,1.59,0,0,0-.64-.65.32.32,0,0,1-.18-.41.28.28,0,0,1,.38-.16l.06,0A2.32,2.32,0,0,1,13.89,4.09Zm-5,1.54A.3.3,0,0,1,8.8,6c-.14.07-.27.15-.4.23a.33.33,0,0,1-.16.05A.31.31,0,0,1,8,6.18a.32.32,0,0,1,.1-.42l.45-.26A.3.3,0,0,1,8.93,5.63Z"/></svg>