<?xml version="1.0" encoding="utf-8"?>
<!-- Generator: Adobe Illustrator 28.0.0, SVG Export Plug-In . SVG Version: 6.00 Build 0)  -->
<svg version="1.1" id="Layer_1" xmlns="http://www.w3.org/2000/svg" xmlns:xlink="http://www.w3.org/1999/xlink" x="0px" y="0px"
	 viewBox="0 0 240.4 54.2" style="enable-background:new 0 0 240.4 54.2;" xml:space="preserve">
<style type="text/css">
	.st0{fill-rule:evenodd;clip-rule:evenodd;fill:#46BF93;}
	
		.st1{clip-path:url(#SVGID_00000083784567108304712400000000299198223206386879_);fill-rule:evenodd;clip-rule:evenodd;fill:#23996E;}
	
		.st2{clip-path:url(#SVGID_00000075869723415356186640000009460575067839549617_);fill-rule:evenodd;clip-rule:evenodd;fill:#46BF93;}
	.st3{clip-path:url(#SVGID_00000086669234231532037390000009512569777512123808_);fill:#FFFFFF;}
	
		.st4{clip-path:url(#SVGID_00000084514525416041141720000001118491262480206491_);fill-rule:evenodd;clip-rule:evenodd;fill:#FFFFFF;}
	
		.st5{clip-path:url(#SVGID_00000074423459161099332500000015105761164448990383_);fill-rule:evenodd;clip-rule:evenodd;fill:#FFFFFF;}
	
		.st6{clip-path:url(#SVGID_00000041976867703757149440000006968801902475388831_);fill-rule:evenodd;clip-rule:evenodd;fill:#FFFFFF;}
	
		.st7{clip-path:url(#SVGID_00000060726336464172694280000010146337116901263518_);fill-rule:evenodd;clip-rule:evenodd;fill:#FFFFFF;}
	
		.st8{clip-path:url(#SVGID_00000066512681668069634790000011142903713428212145_);fill-rule:evenodd;clip-rule:evenodd;fill:#FFFFFF;}
	
		.st9{clip-path:url(#SVGID_00000142883559415255437480000008496733357930374322_);fill-rule:evenodd;clip-rule:evenodd;fill:#FFFFFF;}
	
		.st10{clip-path:url(#SVGID_00000096022455367095543830000010817882931847280310_);fill-rule:evenodd;clip-rule:evenodd;fill:#FFFFFF;}
	.st11{fill:#46BF93;}
</style>
<g>
	<path class="st0" d="M27.4,0.6C42.1,0.6,54,12.5,54,27.2c0,14.7-11.9,26.6-26.6,26.6S0.8,41.9,0.8,27.2C0.8,12.5,12.7,0.6,27.4,0.6
		L27.4,0.6z"/>
	<g>
		<g>
			<defs>
				<path id="SVGID_1_" d="M27.4,0.6C42.1,0.6,54,12.5,54,27.2c0,14.7-11.9,26.6-26.6,26.6S0.8,41.9,0.8,27.2
					C0.8,12.5,12.7,0.6,27.4,0.6L27.4,0.6z"/>
			</defs>
			<clipPath id="SVGID_00000149382812909582165550000001803522662180089242_">
				<use xlink:href="#SVGID_1_"  style="overflow:visible;"/>
			</clipPath>
			
				<path style="clip-path:url(#SVGID_00000149382812909582165550000001803522662180089242_);fill-rule:evenodd;clip-rule:evenodd;fill:#23996E;" d="
				M41.2,9.4l16.9,9.7c0.5,2.2,0.8,4.6,0.8,7c0,15.2-11.2,27.7-25.7,29.9L9.7,42.4l28.6-8.3l0.8-18.5L41.2,9.4L41.2,9.4z"/>
		</g>
		<g>
			<defs>
				<path id="SVGID_00000114770012073114392930000018422279624905824187_" d="M27.4,0.6C42.1,0.6,54,12.5,54,27.2
					c0,14.7-11.9,26.6-26.6,26.6S0.8,41.9,0.8,27.2C0.8,12.5,12.7,0.6,27.4,0.6L27.4,0.6z"/>
			</defs>
			<clipPath id="SVGID_00000153695500510705380850000001581791320391906947_">
				<use xlink:href="#SVGID_00000114770012073114392930000018422279624905824187_"  style="overflow:visible;"/>
			</clipPath>
			
				<path style="clip-path:url(#SVGID_00000153695500510705380850000001581791320391906947_);fill-rule:evenodd;clip-rule:evenodd;fill:#46BF93;" d="
				M33.1,9.9l7.3-0.1c0,0,1.7,0.6,1.6,1.7s0.1,4.1,0.1,4.1h-3.7l0.2,15.8c0,0-0.6,4.4-1.8,5.8S33.6,39,33.6,39h-4.8
				c0,0,0,2.1-1.5,2.3c-1.5,0.2-17.5,0.4-17.5,0.4s2-1.2,2.1-3.3c0.1-2.2-0.1-3.4-0.1-3.4s-0.1-2.1,1.4-2c1.5,0.1,8.1,0.2,8.1,0.2
				L21,16.5l0.2-4.3c0,0,0.3-2,1.7-2.1c1.4-0.1,3.4-0.5,3.4-0.5L33.1,9.9L33.1,9.9z"/>
		</g>
		<g>
			<defs>
				<path id="SVGID_00000126305769377737715780000010540136635983902886_" d="M27.4,0.6C42.1,0.6,54,12.5,54,27.2
					c0,14.7-11.9,26.6-26.6,26.6S0.8,41.9,0.8,27.2C0.8,12.5,12.7,0.6,27.4,0.6L27.4,0.6z"/>
			</defs>
			<clipPath id="SVGID_00000083074077684666574170000009254877127942023317_">
				<use xlink:href="#SVGID_00000126305769377737715780000010540136635983902886_"  style="overflow:visible;"/>
			</clipPath>
			<path style="clip-path:url(#SVGID_00000083074077684666574170000009254877127942023317_);fill:#FFFFFF;" d="M29.6,38.2h1.8
				c-0.3-0.7-0.3-1.5-0.3-2.3c0-0.2,0-0.4,0-0.5c0-0.6,0-1.5-0.8-1.5c-0.4,0-0.5,0.2-0.6,0.6l0,0c-0.1,0.3-0.1,0.6-0.1,1
				c0,1,0,1.8,0,2.5L29.6,38.2L29.6,38.2z M39.3,14.6H41v-3.3c0-0.2-0.1-0.4-0.2-0.5c-0.1-0.1-0.3-0.2-0.5-0.2H40
				c-0.2,0-0.4,0.1-0.5,0.2c-0.1,0.1-0.2,0.3-0.2,0.5L39.3,14.6L39.3,14.6z M41.8,16.2h-2.5v13.1v0c-0.1,2.9-0.5,5.6-1.4,7.5
				c-0.8,1.8-2,2.9-3.8,2.9h-0.3l0,0c-1.2,0-2.6,0-3.9,0h-0.5c0,0.3-0.1,0.6-0.2,0.8c-0.5,1.3-1.2,1.7-2.7,1.7H9.4l0-1.6h0l0,0h0.1
				c1.4-0.1,1.6-1.3,1.5-3.4c0-0.4,0-0.9,0-1.4l0-0.8c0-0.9,0.1-1.6,0.5-2.1c0.4-0.5,1.1-0.8,1.9-0.8c4.2,0,1.9,0,7.1,0V14.5
				c0-5.4,1.5-5.4,5.3-5.4l0,0H26h13.7c0.1,0,0.2,0,0.3,0h0.3c0.6,0,1.2,0.3,1.6,0.7c0.4,0.4,0.7,1,0.7,1.6v4.8L41.8,16.2L41.8,16.2
				z M37.7,16.2L37.7,16.2v-4.8c0-0.2,0-0.5,0.1-0.7h-3.7h-8.3l0,0c-2.7,0-3.8,0-3.8,3.9v17.8h7.2c0.2,0,0.5,0,0.8,0
				c0.2,0,0.3,0,0.5,0c0.7,0,1.2,0.4,1.6,1c0.3,0.5,0.5,1.2,0.5,2c0,0.2,0,0.4,0,0.6c0,1,0,2,1,2.3l0,0c0,0,0.1,0,0.2,0l0,0l0.2,0
				h0.1c1,0,1.8-0.8,2.4-2c0.8-1.7,1.1-4.2,1.2-6.9l0,0L37.7,16.2L37.7,16.2z M21.1,33.9c-0.6,0,1.3,0-7.7,0c-0.4,0-0.6,0.1-0.7,0.2
				c-0.1,0.2-0.2,0.5-0.2,1l0,0.8c0,0.5,0,0.9,0,1.4c0,1.5,0,2.6-0.4,3.5h14.3c0.7,0,1-0.2,1.2-0.7c0.2-0.5,0.2-1.2,0.3-2.2l0-2.7
				c0-0.4,0-0.8,0.2-1.2H21.1L21.1,33.9z"/>
		</g>
		<g>
			<defs>
				<path id="SVGID_00000164489621572186969790000015964650615499214268_" d="M27.4,0.6C42.1,0.6,54,12.5,54,27.2
					c0,14.7-11.9,26.6-26.6,26.6S0.8,41.9,0.8,27.2C0.8,12.5,12.7,0.6,27.4,0.6L27.4,0.6z"/>
			</defs>
			<clipPath id="SVGID_00000182495602121784703990000014128997810384745113_">
				<use xlink:href="#SVGID_00000164489621572186969790000015964650615499214268_"  style="overflow:visible;"/>
			</clipPath>
			
				<polygon style="clip-path:url(#SVGID_00000182495602121784703990000014128997810384745113_);fill-rule:evenodd;clip-rule:evenodd;fill:#FFFFFF;" points="
				24.2,14.4 29.4,14.4 29.4,15.6 24.2,15.6 			"/>
		</g>
		<g>
			<defs>
				<path id="SVGID_00000118354866292384146210000003543174607084791172_" d="M27.4,0.6C42.1,0.6,54,12.5,54,27.2
					c0,14.7-11.9,26.6-26.6,26.6S0.8,41.9,0.8,27.2C0.8,12.5,12.7,0.6,27.4,0.6L27.4,0.6z"/>
			</defs>
			<clipPath id="SVGID_00000083768940387600139830000001222170539973979547_">
				<use xlink:href="#SVGID_00000118354866292384146210000003543174607084791172_"  style="overflow:visible;"/>
			</clipPath>
			
				<polygon style="clip-path:url(#SVGID_00000083768940387600139830000001222170539973979547_);fill-rule:evenodd;clip-rule:evenodd;fill:#FFFFFF;" points="
				24.2,16.9 35.9,16.9 35.9,18.1 24.2,18.1 			"/>
		</g>
		<g>
			<defs>
				<path id="SVGID_00000169543772584676037410000004470497813915265454_" d="M27.4,0.6C42.1,0.6,54,12.5,54,27.2
					c0,14.7-11.9,26.6-26.6,26.6S0.8,41.9,0.8,27.2C0.8,12.5,12.7,0.6,27.4,0.6L27.4,0.6z"/>
			</defs>
			<clipPath id="SVGID_00000062188770408965612440000013790307250362904763_">
				<use xlink:href="#SVGID_00000169543772584676037410000004470497813915265454_"  style="overflow:visible;"/>
			</clipPath>
			
				<polygon style="clip-path:url(#SVGID_00000062188770408965612440000013790307250362904763_);fill-rule:evenodd;clip-rule:evenodd;fill:#FFFFFF;" points="
				24.2,19.4 34,19.4 34,20.6 24.2,20.6 			"/>
		</g>
		<g>
			<defs>
				<path id="SVGID_00000075884990690739177470000004924265219799378876_" d="M27.4,0.6C42.1,0.6,54,12.5,54,27.2
					c0,14.7-11.9,26.6-26.6,26.6S0.8,41.9,0.8,27.2C0.8,12.5,12.7,0.6,27.4,0.6L27.4,0.6z"/>
			</defs>
			<clipPath id="SVGID_00000053525430465422286420000006672522472055304613_">
				<use xlink:href="#SVGID_00000075884990690739177470000004924265219799378876_"  style="overflow:visible;"/>
			</clipPath>
			
				<polygon style="clip-path:url(#SVGID_00000053525430465422286420000006672522472055304613_);fill-rule:evenodd;clip-rule:evenodd;fill:#FFFFFF;" points="
				24.2,21.8 35.1,21.8 35.1,23.1 24.2,23.1 			"/>
		</g>
		<g>
			<defs>
				<path id="SVGID_00000142136038595591821810000015792760866560634006_" d="M27.4,0.6C42.1,0.6,54,12.5,54,27.2
					c0,14.7-11.9,26.6-26.6,26.6S0.8,41.9,0.8,27.2C0.8,12.5,12.7,0.6,27.4,0.6L27.4,0.6z"/>
			</defs>
			<clipPath id="SVGID_00000172427038396461705810000013451127123869230498_">
				<use xlink:href="#SVGID_00000142136038595591821810000015792760866560634006_"  style="overflow:visible;"/>
			</clipPath>
			
				<polygon style="clip-path:url(#SVGID_00000172427038396461705810000013451127123869230498_);fill-rule:evenodd;clip-rule:evenodd;fill:#FFFFFF;" points="
				24.2,24.3 30.5,24.3 30.5,25.5 24.2,25.5 			"/>
		</g>
		<g>
			<defs>
				<path id="SVGID_00000063634961344416305270000016254847795682764731_" d="M27.4,0.6C42.1,0.6,54,12.5,54,27.2
					c0,14.7-11.9,26.6-26.6,26.6S0.8,41.9,0.8,27.2C0.8,12.5,12.7,0.6,27.4,0.6L27.4,0.6z"/>
			</defs>
			<clipPath id="SVGID_00000113343832811865249530000015447815111604152456_">
				<use xlink:href="#SVGID_00000063634961344416305270000016254847795682764731_"  style="overflow:visible;"/>
			</clipPath>
			
				<polygon style="clip-path:url(#SVGID_00000113343832811865249530000015447815111604152456_);fill-rule:evenodd;clip-rule:evenodd;fill:#FFFFFF;" points="
				24.2,26.7 35.5,26.7 35.5,28 24.2,28 			"/>
		</g>
		<g>
			<defs>
				<path id="SVGID_00000161616762713135907260000006558885734991695792_" d="M27.4,0.6C42.1,0.6,54,12.5,54,27.2
					c0,14.7-11.9,26.6-26.6,26.6S0.8,41.9,0.8,27.2C0.8,12.5,12.7,0.6,27.4,0.6L27.4,0.6z"/>
			</defs>
			<clipPath id="SVGID_00000035504822117584559500000013444257787515375250_">
				<use xlink:href="#SVGID_00000161616762713135907260000006558885734991695792_"  style="overflow:visible;"/>
			</clipPath>
			
				<polygon style="clip-path:url(#SVGID_00000035504822117584559500000013444257787515375250_);fill-rule:evenodd;clip-rule:evenodd;fill:#FFFFFF;" points="
				24.2,29.2 33.4,29.2 33.4,30.4 24.2,30.4 			"/>
		</g>
	</g>
	<polygon class="st11" points="64.1,18.4 65.8,18.4 69.3,30.5 74.2,18.4 74.4,18.4 79.2,30.5 82.7,18.4 84.4,18.4 79.6,35.3 
		79.3,35.3 74.3,22.5 69.1,35.3 68.9,35.3 	"/>
	<path class="st11" d="M87.3,18h1.6V25c0.7-0.9,1.4-1.5,2.2-1.9c0.8-0.4,1.6-0.6,2.5-0.6c0.9,0,1.8,0.2,2.5,0.7
		c0.7,0.5,1.3,1.1,1.6,1.9c0.3,0.8,0.5,2,0.5,3.8v6.4h-1.6v-6c0-1.4-0.1-2.4-0.2-2.9c-0.2-0.8-0.6-1.4-1.1-1.9S94.2,24,93.3,24
		c-1,0-1.8,0.3-2.6,1c-0.8,0.6-1.3,1.4-1.5,2.4c-0.2,0.6-0.2,1.7-0.2,3.4v4.6h-1.6V18L87.3,18z"/>
	<path class="st11" d="M107.6,22.5c1.9,0,3.5,0.7,4.8,2.1c1.2,1.3,1.7,2.8,1.7,4.5c0,1.7-0.6,3.3-1.8,4.6c-1.2,1.3-2.8,2-4.7,2
		c-1.9,0-3.5-0.7-4.7-2s-1.8-2.8-1.8-4.6c0-1.7,0.6-3.2,1.7-4.5C104.1,23.2,105.7,22.5,107.6,22.5L107.6,22.5z M107.6,24.1
		c-1.3,0-2.5,0.5-3.4,1.5s-1.4,2.2-1.4,3.6c0,0.9,0.2,1.7,0.7,2.5c0.4,0.8,1,1.4,1.8,1.8c0.7,0.4,1.6,0.6,2.4,0.6s1.7-0.2,2.4-0.6
		c0.7-0.4,1.3-1,1.8-1.8c0.4-0.8,0.7-1.6,0.7-2.5c0-1.4-0.5-2.6-1.4-3.6C110.1,24.5,108.9,24.1,107.6,24.1L107.6,24.1z"/>
	<polygon class="st11" points="116.8,18 118.4,18 118.4,35.3 116.8,35.3 	"/>
	<path class="st11" d="M132.3,31.1l1.4,0.7c-0.4,0.9-1,1.6-1.5,2.1c-0.6,0.5-1.2,0.9-2,1.2c-0.7,0.3-1.6,0.4-2.5,0.4
		c-2.1,0-3.6-0.7-4.8-2s-1.7-2.8-1.7-4.5c0-1.6,0.5-3,1.5-4.2c1.2-1.6,2.9-2.4,5-2.4c2.1,0,3.8,0.8,5.1,2.4c0.9,1.1,1.4,2.6,1.4,4.3
		h-11.3c0,1.5,0.5,2.6,1.4,3.6c0.9,0.9,2,1.4,3.3,1.4c0.6,0,1.3-0.1,1.9-0.3c0.6-0.2,1.1-0.5,1.5-0.9
		C131.4,32.5,131.8,31.9,132.3,31.1L132.3,31.1z M132.3,27.8c-0.2-0.9-0.5-1.5-0.9-2c-0.4-0.5-1-0.9-1.6-1.2
		c-0.7-0.3-1.4-0.5-2.1-0.5c-1.2,0-2.3,0.4-3.2,1.2c-0.7,0.6-1.1,1.4-1.5,2.6L132.3,27.8L132.3,27.8z"/>
	<path class="st11" d="M143.4,24.1l-1,1.1c-0.9-0.8-1.7-1.2-2.5-1.2c-0.5,0-1,0.2-1.3,0.5c-0.4,0.3-0.6,0.7-0.6,1.2
		c0,0.4,0.1,0.8,0.5,1.2c0.3,0.4,0.9,0.8,1.9,1.3c1.2,0.6,2,1.2,2.4,1.8c0.4,0.6,0.6,1.2,0.6,2c0,1-0.4,1.9-1.1,2.6
		c-0.7,0.7-1.6,1.1-2.7,1.1c-0.7,0-1.4-0.2-2.1-0.5c-0.6-0.3-1.2-0.7-1.6-1.3l1-1.2c0.8,0.9,1.7,1.4,2.6,1.4c0.6,0,1.2-0.2,1.6-0.6
		c0.4-0.4,0.7-0.9,0.7-1.5c0-0.5-0.1-0.9-0.4-1.2c-0.3-0.4-1-0.8-2-1.3c-1.1-0.6-1.9-1.1-2.3-1.7c-0.4-0.6-0.6-1.2-0.6-1.9
		c0-0.9,0.3-1.7,1-2.4c0.6-0.6,1.5-0.9,2.5-0.9C141,22.5,142.2,23,143.4,24.1L143.4,24.1z"/>
	<path class="st11" d="M158.6,22.8v12.5H157v-2.2c-0.7,0.8-1.4,1.4-2.3,1.8c-0.8,0.4-1.8,0.6-2.7,0.6c-1.8,0-3.3-0.6-4.5-1.9
		c-1.2-1.3-1.9-2.8-1.9-4.7c0-1.8,0.6-3.3,1.9-4.6s2.8-1.9,4.6-1.9c1,0,1.9,0.2,2.8,0.6s1.6,1.1,2.2,2v-2.3L158.6,22.8L158.6,22.8z
		 M152.2,24c-0.9,0-1.7,0.2-2.5,0.7c-0.8,0.4-1.4,1-1.8,1.8c-0.4,0.8-0.7,1.6-0.7,2.5c0,0.9,0.2,1.7,0.7,2.5
		c0.4,0.8,1.1,1.4,1.8,1.9s1.6,0.7,2.4,0.7s1.7-0.2,2.5-0.7c0.8-0.4,1.4-1,1.8-1.8c0.4-0.8,0.6-1.6,0.6-2.5c0-1.4-0.5-2.6-1.4-3.6
		C154.7,24.5,153.6,24,152.2,24L152.2,24z"/>
	<polygon class="st11" points="162,18 163.6,18 163.6,35.3 162,35.3 	"/>
	<path class="st11" d="M177.5,31.1l1.4,0.7c-0.4,0.9-1,1.6-1.5,2.1c-0.6,0.5-1.2,0.9-2,1.2c-0.7,0.3-1.6,0.4-2.5,0.4
		c-2.1,0-3.6-0.7-4.8-2s-1.7-2.8-1.7-4.5c0-1.6,0.5-3,1.5-4.2c1.2-1.6,2.9-2.4,5-2.4c2.1,0,3.8,0.8,5.1,2.4c0.9,1.1,1.4,2.6,1.4,4.3
		H168c0,1.5,0.5,2.6,1.4,3.6c0.9,0.9,2,1.4,3.3,1.4c0.6,0,1.3-0.1,1.9-0.3c0.6-0.2,1.1-0.5,1.5-0.9C176.6,32.5,177,31.9,177.5,31.1
		L177.5,31.1z M177.5,27.8c-0.2-0.9-0.5-1.5-0.9-2c-0.4-0.5-1-0.9-1.6-1.2c-0.7-0.3-1.4-0.5-2.1-0.5c-1.2,0-2.3,0.4-3.2,1.2
		c-0.6,0.6-1.1,1.4-1.5,2.6L177.5,27.8L177.5,27.8z"/>
	<path class="st11" d="M187.3,32.1l1.4-0.9c1,1.9,2.2,2.8,3.5,2.8c0.6,0,1.1-0.1,1.6-0.4c0.5-0.3,0.9-0.6,1.1-1.1
		c0.3-0.4,0.4-0.9,0.4-1.4c0-0.6-0.2-1.1-0.6-1.7c-0.5-0.8-1.5-1.6-2.9-2.7c-1.4-1.1-2.3-1.8-2.6-2.3c-0.6-0.8-0.9-1.7-0.9-2.6
		c0-0.7,0.2-1.4,0.5-2c0.4-0.6,0.9-1.1,1.5-1.4s1.3-0.5,2.1-0.5c0.8,0,1.6,0.2,2.2,0.6s1.4,1.1,2.2,2.2l-1.4,1
		c-0.6-0.8-1.2-1.4-1.6-1.7c-0.4-0.3-0.9-0.4-1.5-0.4c-0.7,0-1.2,0.2-1.7,0.6c-0.4,0.4-0.6,0.9-0.6,1.5c0,0.4,0.1,0.7,0.2,1.1
		s0.4,0.7,0.8,1.1c0.2,0.2,0.9,0.8,2.2,1.7c1.5,1.1,2.5,2,3,2.9c0.5,0.8,0.8,1.7,0.8,2.5c0,1.2-0.5,2.3-1.4,3.2
		c-0.9,0.9-2.1,1.4-3.4,1.4c-1,0-2-0.3-2.8-0.8C188.7,34.3,188,33.4,187.3,32.1L187.3,32.1z"/>
	<path class="st11" d="M200.2,22.8h1.6v5.8c0,1.4,0.1,2.4,0.2,2.9c0.2,0.8,0.7,1.4,1.3,1.8c0.6,0.4,1.4,0.7,2.3,0.7
		c0.9,0,1.7-0.2,2.3-0.7c0.6-0.4,1.1-1,1.3-1.7c0.2-0.5,0.2-1.5,0.2-3.1v-5.8h1.6v6.1c0,1.7-0.2,3-0.6,3.9c-0.4,0.9-1,1.6-1.8,2
		c-0.8,0.5-1.8,0.7-3,0.7c-1.2,0-2.2-0.2-3.1-0.7s-1.4-1.2-1.8-2.1c-0.4-0.9-0.6-2.2-0.6-4L200.2,22.8L200.2,22.8z"/>
	<path class="st11" d="M215.3,17.7c0.4,0,0.7,0.1,0.9,0.4s0.4,0.6,0.4,0.9s-0.1,0.7-0.4,0.9s-0.6,0.4-0.9,0.4
		c-0.4,0-0.7-0.1-0.9-0.4c-0.3-0.3-0.4-0.6-0.4-0.9s0.1-0.7,0.4-0.9C214.7,17.8,215,17.7,215.3,17.7L215.3,17.7z M214.5,22.8h1.6
		v12.5h-1.6V22.8L214.5,22.8z"/>
	<polygon class="st11" points="220.9,18.1 222.4,18.1 222.4,22.8 225,22.8 225,24.2 222.4,24.2 222.4,35.3 220.9,35.3 220.9,24.2 
		218.7,24.2 218.7,22.8 220.9,22.8 	"/>
	<path class="st11" d="M238,31.1l1.4,0.7c-0.4,0.9-1,1.6-1.5,2.1c-0.6,0.5-1.2,0.9-2,1.2c-0.7,0.3-1.6,0.4-2.5,0.4
		c-2.1,0-3.6-0.7-4.8-2s-1.7-2.8-1.7-4.5c0-1.6,0.5-3,1.5-4.2c1.2-1.6,2.9-2.4,5-2.4c2.1,0,3.8,0.8,5.1,2.4c0.9,1.1,1.4,2.6,1.4,4.3
		h-11.3c0,1.5,0.5,2.6,1.4,3.6c0.9,0.9,2,1.4,3.3,1.4c0.6,0,1.3-0.1,1.9-0.3c0.6-0.2,1.1-0.5,1.5-0.9C237,32.5,237.5,31.9,238,31.1
		L238,31.1z M238,27.8c-0.2-0.9-0.5-1.5-0.9-2c-0.4-0.5-1-0.9-1.6-1.2c-0.7-0.3-1.4-0.5-2.1-0.5c-1.2,0-2.3,0.4-3.2,1.2
		c-0.6,0.6-1.1,1.4-1.5,2.6L238,27.8L238,27.8z"/>
</g>
</svg>
