<svg width="20" height="20" viewBox="0 0 20 20" fill="none" xmlns="http://www.w3.org/2000/svg">
<g clip-path="url(#clip0_120_3231)">
<path d="M2.5 0C1.83696 0 1.20107 0.263392 0.732233 0.732233C0.263392 1.20107 0 1.83696 0 2.5L0 17.5C0 18.163 0.263392 18.7989 0.732233 19.2678C1.20107 19.7366 1.83696 20 2.5 20H17.5C18.163 20 18.7989 19.7366 19.2678 19.2678C19.7366 18.7989 20 18.163 20 17.5V2.5C20 1.83696 19.7366 1.20107 19.2678 0.732233C18.7989 0.263392 18.163 0 17.5 0L2.5 0ZM10.2825 6.73125C9.5525 6.73125 9.11125 6.93625 9.11125 7.4725C9.11125 8.0575 9.87 8.315 10.8113 8.635C12.3463 9.15375 14.3663 9.83875 14.375 12.3763C14.375 14.835 12.405 16.25 9.5375 16.25C8.24391 16.2446 6.96468 15.9784 5.77625 15.4675V12.1975C6.93375 12.83 8.395 13.2975 9.53875 13.2975C10.31 13.2975 10.8612 13.0912 10.8612 12.4587C10.8612 11.8112 10.0387 11.515 9.045 11.1575C7.5325 10.6125 5.625 9.925 5.625 7.6375C5.625 5.20625 7.485 3.75 10.2825 3.75C11.4516 3.73954 12.6118 3.95384 13.7 4.38125V7.61C12.6525 7.0475 11.33 6.73125 10.2825 6.73125Z" fill="white"/>
</g>
<defs>
<clipPath id="clip0_120_3231">
<rect width="20" height="20" fill="white"/>
</clipPath>
</defs>
</svg>
