<svg xmlns="http://www.w3.org/2000/svg" viewBox="0 0 12.69 16.68"><path d="M.11,6.94A4.81,4.81,0,0,1,2.88,3.37a2.61,2.61,0,0,1,2.59.37h0a.3.3,0,0,1,.06.42.32.32,0,0,1-.43.06,2,2,0,0,0-2-.29A4.22,4.22,0,0,0,.73,7a6.46,6.46,0,0,0,.82,4.48.25.25,0,0,1,.05.13s.06.51.2,1.22A4.35,4.35,0,0,0,4.19,16c.92.41,2.48-.84,3-1.36a.24.24,0,0,1,.16-.09,3.92,3.92,0,0,0,1.7-.86,4.91,4.91,0,0,0,2-3v-.13a.23.23,0,0,1,.06-.12,3.35,3.35,0,0,0,.94-2.93c-.43-1.44-2.32-2.1-2.32-2.1h0A.3.3,0,0,1,9.51,5a.3.3,0,0,1,.38-.17c.09,0,2.22.75,2.72,2.47a3.81,3.81,0,0,1-1,3.43v.06a5.55,5.55,0,0,1-2.15,3.31,4.77,4.77,0,0,1-1.9,1,5.34,5.34,0,0,1-2.95,1.55A1.75,1.75,0,0,1,4,16.55,5,5,0,0,1,1.22,13,9.94,9.94,0,0,1,1,11.76,6.86,6.86,0,0,1,.11,6.94ZM4.31,5.4A1.51,1.51,0,0,1,5.73,5,1.91,1.91,0,0,1,7,6a.3.3,0,0,0,.17.26.34.34,0,0,0,.27-.07,1.41,1.41,0,0,1,1.83,0,.32.32,0,0,0,.19.07.32.32,0,0,0,.24-.11.31.31,0,0,0,0-.42A2,2,0,0,0,7.36,5.5,2.51,2.51,0,0,0,5.89,4.44a2.12,2.12,0,0,0-2,.5.29.29,0,0,0,0,.42A.31.31,0,0,0,4.31,5.4Zm5.8,1.2a.29.29,0,0,0,0,.41c.32.36,1.09,1.45.73,2.2h0a.29.29,0,0,0,.15.39h.13a.33.33,0,0,0,.27-.17c.62-1.27-.77-2.8-.83-2.86a.3.3,0,0,0-.43,0ZM10,8.35a.3.3,0,0,0-.35-.18.3.3,0,0,0-.22.36c0,.11.73,2.5-2.73,4.39h0a.29.29,0,0,0-.1.4.31.31,0,0,0,.26.16H7C10.86,11.26,10,8.46,10,8.35Zm-5,5.4a.3.3,0,0,0,.24-.35c-.05-.37.4-1.39,1.47-2.82s.66-3.75.66-3.85A.3.3,0,0,0,7,6.49a.29.29,0,0,0-.24.35,5.3,5.3,0,0,1-.46,3.37c-.81,1.08-1.75,2.53-1.62,3.29a.31.31,0,0,0,.3.25ZM1.63,10.08a.31.31,0,0,0,.28-.32A5.22,5.22,0,0,1,3.44,6.1a.32.32,0,0,0,0-.43.29.29,0,0,0-.42,0A5.73,5.73,0,0,0,1.31,9.8a.3.3,0,0,0,.3.28h0Zm9.22-5.19h0A.29.29,0,0,0,11,4.5,2.25,2.25,0,0,0,8.23,3.34h0A4,4,0,0,0,5.3,0c-1.42-.23-4,1.08-4.07,1.08a.25.25,0,0,0-.15.21,1,1,0,0,0,.57,1.14.34.34,0,0,0,.28,0S4,.85,5.18,1.65A3,3,0,0,1,6.25,4.13a.31.31,0,0,0,.27.33h0a.31.31,0,0,0,.33-.27,3.57,3.57,0,0,0-1.33-3c-1.3-.9-3.21.3-3.79.7a.36.36,0,0,1-.07-.24,7.69,7.69,0,0,1,3.53-1A3.48,3.48,0,0,1,7.65,3.41a2.36,2.36,0,0,0,.08.45h0a1.63,1.63,0,0,0,.91,1.26h.09A.3.3,0,0,0,9,4.92a.3.3,0,0,0-.17-.38A1,1,0,0,1,8.37,4a1.64,1.64,0,0,1,2.08.77.3.3,0,0,0,.28.18A.25.25,0,0,0,10.85,4.89Z"/></svg>