<svg enable-background="new 0 0 12.7 16.6" viewBox="0 0 12.7 16.6" xmlns="http://www.w3.org/2000/svg"><path d="m.1 6.9c.3-1.6 1.3-2.9 2.8-3.5.9-.4 1.9-.3 2.6.3.1.1.1.3 0 .4-.1.2-.2.2-.4.1-.6-.5-1.3-.6-2-.3-1.2.6-2.1 1.8-2.4 3.1-.3 1.5 0 3.1.8 4.5 0 0 0 .1.1.1 0 0 .1.5.2 1.2.3 1.4 1.2 2.6 2.4 3.2.9.4 2.5-.8 3-1.4 0 0 .1-.1.2-.1.6-.1 1.2-.4 1.7-.9 1-.7 1.7-1.8 2-3v-.1s0-.1.1-.1c.8-.8 1.1-1.9.9-2.9-.4-1.4-2.3-2.1-2.3-2.1-.2 0-.3-.2-.3-.4.1-.1.2-.2.4-.2.1 0 2.2.8 2.7 2.5.3 1.2-.1 2.5-1 3.4v.1c-.3 1.3-1 2.5-2.1 3.3-.5.5-1.2.8-1.9 1-.8.8-1.8 1.4-3 1.5-.2 0-.4 0-.6-.1-1.4-.7-2.5-2-2.7-3.6-.1-.6-.2-1-.2-1.2-.9-1.4-1.3-3.1-1-4.8zm4.2-1.5c.4-.4.9-.5 1.4-.4s1 .5 1.2 1c0 .1.1.2.2.3.1 0 .2 0 .3-.1.5-.4 1.3-.4 1.8 0 .1 0 .1.1.2.1s.2 0 .2-.1c.1-.1.1-.3 0-.4-.5-.6-1.5-.7-2.2-.3-.4-.5-.9-.9-1.5-1.1-.7-.2-1.5 0-2 .5-.1.1-.1.3 0 .4.1.2.3.2.4.1zm5.8 1.2c-.1.1-.1.3 0 .4.3.4 1.1 1.5.7 2.2-.1.1 0 .3.1.4h.1c.1 0 .2-.1.3-.2.6-1.3-.8-2.8-.8-2.9s-.2-.1-.4.1zm-.1 1.7c-.1-.1-.2-.2-.4-.1-.2 0-.3.2-.2.4 0 .1.7 2.5-2.7 4.4-.1.1-.2.3-.1.4s.2.2.3.2h.2c3.8-2.4 2.9-5.2 2.9-5.3zm-5 5.4c.2 0 .3-.2.2-.3 0-.4.4-1.4 1.5-2.8s.7-3.8.7-3.8c0-.2-.2-.3-.4-.2-.2 0-.3.2-.2.4.2 1 0 2.2-.5 3.2-.8 1.1-1.8 2.5-1.6 3.3 0 .1.1.2.3.2zm-3.4-3.6c.2 0 .3-.2.3-.3 0-1.4.6-2.7 1.5-3.7.1-.1.1-.3 0-.4-.1-.2-.2-.2-.4 0-1.1 1-1.7 2.5-1.7 4.1 0 .1.2.3.3.3zm9.3-5.2c.1-.1.2-.3.1-.4-.5-1-1.7-1.5-2.8-1.2-.2-1.6-1.3-2.9-2.9-3.3-1.4-.2-4 1.1-4.1 1.1s-.1.1-.1.2c-.1.5.1.9.6 1.1h.3s2.1-1.6 3.2-.8c.7.6 1.1 1.5 1.1 2.5 0 .2.1.3.3.3.2 0 .3-.1.3-.3.1-1.2-.4-2.3-1.3-3-1.4-.8-3.3.4-3.9.8 0-.1 0-.2 0-.3 1.1-.6 2.3-1 3.5-1 1.3.4 2.2 1.5 2.5 2.8 0 .2 0 .3.1.5.1.5.4 1 .9 1.3h.1c.1-.1.2-.2.2-.3.1-.2 0-.3-.2-.4s-.3-.3-.4-.6c.8-.3 1.7 0 2.1.8 0 .1.2.2.3.2z"/></svg>