<svg viewBox="0 0 15.2 22.41" xmlns="http://www.w3.org/2000/svg"><path d="m15 8.82h-.12a7.53 7.53 0 0 0 -2.7.39l-.32.1.14-.13a13.33 13.33 0 0 1 1.67-1.69c.09-.07.14-.15.09-.26s-.14-.13-.25-.11a5.06 5.06 0 0 0 -1.28.29l-.82.34a.3.3 0 0 1 0-.08 10.57 10.57 0 0 1 1.27-1.91 12.55 12.55 0 0 1 1.32-1.37c.11-.09.13-.18.08-.27a.18.18 0 0 0 -.25-.12 10.16 10.16 0 0 0 -2.95 1.46l-.57.45c0-.06 0-.09 0-.13a24.2 24.2 0 0 1 2-3.41.21.21 0 0 0 0-.27.2.2 0 0 0 -.27 0l-.5.22a8 8 0 0 0 -2.22 1.5q-.18.18-.32.36a.93.93 0 0 1 0-.13 20.21 20.21 0 0 0 -1.59-3.89c-.04-.09-.1-.16-.21-.16a.22.22 0 0 0 -.2.16 20.8 20.8 0 0 0 -1.17 4 .56.56 0 0 0 0 .13l-.08-.06a7.37 7.37 0 0 0 -2.12-1.4c-.37-.16-.75-.29-1.13-.44a.19.19 0 0 0 -.25.07.19.19 0 0 0 0 .25l.06.07a24.42 24.42 0 0 1 1.86 2.59l.44.73a10 10 0 0 0 -3.61-1.61c-.19 0-.28 0-.33.08s0 .19.14.31a12.49 12.49 0 0 1 2.73 2.88l.17.24h-.15a6 6 0 0 0 -1.62-.42h-.42a.22.22 0 0 0 -.23.14.2.2 0 0 0 .1.24h.06a14.1 14.1 0 0 1 1.71 1.46l.13.15c-.32-.07-.63-.16-.95-.22a6.62 6.62 0 0 0 -2.14-.02c-.11 0-.19.07-.2.18a.21.21 0 0 0 .16.22l.34.13a16.45 16.45 0 0 1 2.5 1.39l1.08.75c-.12.19-.23.36-.32.54a8.43 8.43 0 0 0 -.85 2.52 9.07 9.07 0 0 0 0 2.94 5.14 5.14 0 0 0 1.31 2.79 5 5 0 0 0 3.78 1.62 5 5 0 0 0 3.53-1.36 4.75 4.75 0 0 0 1.49-3 8.75 8.75 0 0 0 -1.22-5.67c-.13-.23-.27-.44-.42-.67a22.73 22.73 0 0 1 2.16-1.64 9.18 9.18 0 0 1 1.52-.87.17.17 0 0 0 .14-.2.18.18 0 0 0 -.2-.18zm-2.23-1.17h.13a10 10 0 0 0 -2.4 3.23l-.4-.32.2-.07a.27.27 0 0 0 .22-.23 8.73 8.73 0 0 1 .48-1.74.36.36 0 0 1 .14-.16 5.17 5.17 0 0 1 1.63-.71zm-6.69 11.28 1.79-1.14a.17.17 0 0 1 .17 0l2 1.05h.06l-.29.16-1.65 1c-.05 0-.09.06-.15 0l-2.01-1zm-.42-.2a.17.17 0 0 1 -.19 0l-1.85-1-.14-.08.09-.06 1.81-1.15a.15.15 0 0 1 .18 0l1.89 1 .1.07-.09.06c-.6.43-1.2.77-1.8 1.16zm2.76-1.2s0 0-.07 0l.1-.06 1.8-1.13a.15.15 0 0 1 .19 0l1.9 1 .09.06-.08.06-1.82 1.15a.14.14 0 0 1 -.15 0zm1.41-1.43-1.83 1.13a.17.17 0 0 1 -.17 0l-1.95-1s0-.05.08-.06l1.8-1.17a.12.12 0 0 1 .15 0l2 1h.06zm-2.1-1.69-1.9-1-.1-.06.85-.53c.35-.23.71-.45 1.07-.67a.17.17 0 0 1 .14 0l2 1 .06.05-.1.06-1.83 1.14a.17.17 0 0 1 -.19.01zm.43-2.53h-.05l1.6-1a.15.15 0 0 1 .14 0 5.32 5.32 0 0 1 1.13 1l.28.38-.06.05c-.31.2-.62.4-.94.59a.19.19 0 0 1 -.13 0zm4.92-7.17-.66.76a10.78 10.78 0 0 0 -2.27 4.53.15.15 0 0 1 -.09.1l-.35.12a.13.13 0 0 1 -.19-.12c-.06-.42-.13-.83-.19-1.25a.33.33 0 0 1 0-.17c.18-.6.37-1.19.56-1.78a.47.47 0 0 1 .11-.06 8.89 8.89 0 0 1 3.08-2.13zm-3.94-.13a6.81 6.81 0 0 1 1.75-1.46c.24-.15.48-.27.73-.4a23.64 23.64 0 0 0 -2.21 4.34 14 14 0 0 0 -.32-2.33.21.21 0 0 1 .05-.15zm0 5.45a3.85 3.85 0 0 0 -3 .11 9.07 9.07 0 0 1 1.3-4.29 9.16 9.16 0 0 1 1.69 4.15zm-2.89-5.94a19.88 19.88 0 0 1 .95-3.31v-.1a15.61 15.61 0 0 1 1.8 7.16c-.1-.2-.19-.41-.29-.61a12.82 12.82 0 0 0 -1.09-1.82.2.2 0 0 0 -.37 0 12.17 12.17 0 0 0 -1.11 2.4.31.31 0 0 1 0 .1.77.77 0 0 1 0-.15 13 13 0 0 1 .11-3.67zm3.12 6.5-1.62 1a.09.09 0 0 1 -.1 0l-1.65-.88a3.43 3.43 0 0 1 3.37-.12zm-2.17 1.22.12.07-.1.06-1.8 1.14a.15.15 0 0 1 -.17 0l-1-.55v-.08a5.57 5.57 0 0 1 1.21-1.45.18.18 0 0 1 .23 0c.5.28 1.01.54 1.51.81zm-4.15-8.81h.05a7.43 7.43 0 0 1 2.53 1.67.26.26 0 0 1 .09.26 12.36 12.36 0 0 0 -.1 2.19.13.13 0 0 1 0 .06 24.26 24.26 0 0 0 -2.57-4.18zm-.22 3.21c-.32-.36-.68-.69-1-1 .41.17.82.33 1.21.52a8.29 8.29 0 0 1 1.83 1.12 1.19 1.19 0 0 1 .36.47c.19.47.39.95.58 1.43a1.09 1.09 0 0 1 0 .32c0 .39-.06.78-.08 1.18 0 .13-.06.17-.19.14s-.3 0-.39-.12-.08-.27-.15-.37a10.64 10.64 0 0 0 -2.17-3.69zm-.66 1.79c.14 0 .28 0 .42.09a5.28 5.28 0 0 1 1.41.52.4.4 0 0 1 .13.13 8.87 8.87 0 0 1 .67 1.66.31.31 0 0 0 .28.26l.18.05-.39.34a10.48 10.48 0 0 0 -2.7-3.05zm-1.1 1.7h.09a8.2 8.2 0 0 1 2.59.49.14.14 0 0 1 .08.07c.24.36.47.71.7 1.08a.15.15 0 0 1 0 .11c-.06.09-.13.17-.21.27a22.63 22.63 0 0 0 -3.25-2.04zm3 3.2.91.49-1.43.9a5.44 5.44 0 0 1 .45-1.41zm-.57 1.89 1.81-1.14a.14.14 0 0 1 .15 0l2 1.05-.1.07-1.81 1.12a.16.16 0 0 1 -.2 0l-1.87-1-.12-.06zm-.18.47 1.78 1-1.91 1.11a9.51 9.51 0 0 1 .09-2.13zm0 2.77 1.91 1-1.24.78a5.1 5.1 0 0 1 -.72-1.81zm2.46 3.47a4.67 4.67 0 0 1 -1.52-1.27.16.16 0 0 1 0-.07l.07-.06 1.27-.79a.14.14 0 0 1 .14 0l2 1h.06l-.1.07-1.66 1a.17.17 0 0 1 -.31.1zm.57.23.09-.07 1.61-1a.15.15 0 0 1 .19 0l1.72.92h.08a4.93 4.93 0 0 1 -3.74.13zm4.86-.86c-.21.18-.43.33-.65.49a.13.13 0 0 1 -.12 0l-1.86-1 .09-.07 1.79-1.13a.18.18 0 0 1 .2 0l1.41.76a3.84 3.84 0 0 1 -.91.93zm1-1.32-1.31-.7 1.81-1.14a5.09 5.09 0 0 1 -.54 1.82zm.53-2.48-2-1.05 1.7-1.07a9.4 9.4 0 0 1 .26 2.1zm-.39-2.51-1.13.7-.78.5a.17.17 0 0 1 -.14 0l-2-1.05.09-.06 1.79-1.14a.18.18 0 0 1 .2 0l1.87 1zm-.83-1.91a7.26 7.26 0 0 1 .63 1.35l-1.54-.82zm-.37-1.18-.27-.28a.14.14 0 0 1 0-.09l.6-1.13s.05 0 .08-.07a8.25 8.25 0 0 1 2.59-.67h.06a21 21 0 0 0 -3.1 2.22z"/></svg>