<svg xmlns="http://www.w3.org/2000/svg" viewBox="0 0 15.2 22.41"><path d="M15,8.82h-.12a7.53,7.53,0,0,0-2.7.39l-.32.1L12,9.18a13.33,13.33,0,0,1,1.67-1.69c.09-.07.14-.15.09-.26s-.14-.13-.25-.11a5.06,5.06,0,0,0-1.28.29l-.82.34v0a.3.3,0,0,1,0-.08,10.57,10.57,0,0,1,1.27-1.91A12.55,12.55,0,0,1,14,4.39c.11-.09.13-.18.08-.27A.18.18,0,0,0,13.83,4a10.16,10.16,0,0,0-2.95,1.46l-.57.45c0-.06,0-.09,0-.13a24.2,24.2,0,0,1,2-3.41.21.21,0,0,0,0-.27.2.2,0,0,0-.27,0l-.5.22A8,8,0,0,0,9.32,3.82Q9.14,4,9,4.18a.93.93,0,0,1,0-.13A20.21,20.21,0,0,0,7.41.16C7.37.07,7.31,0,7.2,0A.22.22,0,0,0,7,.16a20.8,20.8,0,0,0-1.17,4,.56.56,0,0,0,0,.13l-.08-.06a7.37,7.37,0,0,0-2.12-1.4c-.37-.16-.75-.29-1.13-.44a.19.19,0,0,0-.25.07.19.19,0,0,0,0,.25l.06.07A24.42,24.42,0,0,1,4.17,5.37l.44.73h0l0,0A10,10,0,0,0,1,4.49c-.19,0-.28,0-.33.08s0,.19.14.31A12.49,12.49,0,0,1,3.54,7.76L3.71,8,3.56,8a6,6,0,0,0-1.62-.42l-.42,0a.22.22,0,0,0-.23.14.2.2,0,0,0,.1.24l.06,0A14.1,14.1,0,0,1,3.16,9.42l.13.15v0c-.32-.07-.63-.16-.95-.22A6.62,6.62,0,0,0,.2,9.33c-.11,0-.19.07-.2.18a.21.21,0,0,0,.16.22l.34.13A16.45,16.45,0,0,1,3,11.25L4.08,12c-.12.19-.23.36-.32.54a8.43,8.43,0,0,0-.85,2.52,9.07,9.07,0,0,0,0,2.94,5.14,5.14,0,0,0,1.31,2.79A5,5,0,0,0,8,22.41a5,5,0,0,0,3.53-1.36,4.75,4.75,0,0,0,1.49-3,8.75,8.75,0,0,0-1.22-5.67c-.13-.23-.27-.44-.42-.67l0,0a22.73,22.73,0,0,1,2.16-1.64,9.18,9.18,0,0,1,1.52-.87A.17.17,0,0,0,15.2,9,.18.18,0,0,0,15,8.82ZM12.77,7.65l.13,0a10,10,0,0,0-2.4,3.23l-.4-.32.2-.07a.27.27,0,0,0,.22-.23A8.73,8.73,0,0,1,11,8.52a.36.36,0,0,1,.14-.16A5.17,5.17,0,0,1,12.77,7.65ZM6.08,18.93l1.79-1.14a.17.17,0,0,1,.17,0l2,1.05.06,0L9.81,19l-1.65,1c-.05,0-.09.06-.15,0L6,19,6,19Zm-.42-.2a.17.17,0,0,1-.19,0l-1.85-1-.14-.08.09-.06,1.81-1.15a.15.15,0,0,1,.18,0l1.89,1,.1.07-.09.06C6.86,18,6.26,18.34,5.66,18.73Zm2.76-1.2s0,0-.07,0l.1-.06,1.8-1.13a.15.15,0,0,1,.19,0l1.9,1,.09.06-.08.06-1.82,1.15a.14.14,0,0,1-.15,0ZM9.83,16.1,8,17.23a.17.17,0,0,1-.17,0l-1.95-1,0,0s0-.05.08-.06L7.76,15a.12.12,0,0,1,.15,0l2,1,.06,0Zm-2.1-1.69-1.9-1-.1-.06.85-.53c.35-.23.71-.45,1.07-.67a.17.17,0,0,1,.14,0l2,1,.06.05-.1.06L7.92,14.4A.17.17,0,0,1,7.73,14.41Zm.43-2.53-.05,0,1.6-1a.15.15,0,0,1,.14,0,5.32,5.32,0,0,1,1.13,1l.28.38-.06.05c-.31.2-.62.4-.94.59a.19.19,0,0,1-.13,0Zm4.92-7.17-.66.76A10.78,10.78,0,0,0,10.15,10a.15.15,0,0,1-.09.1l-.35.12a.13.13,0,0,1-.19-.12c-.06-.42-.13-.83-.19-1.25a.33.33,0,0,1,0-.17c.18-.6.37-1.19.56-1.78A.47.47,0,0,1,10,6.84,8.89,8.89,0,0,1,13.08,4.71ZM9.14,4.58a6.81,6.81,0,0,1,1.75-1.46c.24-.15.48-.27.73-.4A23.64,23.64,0,0,0,9.41,7.06a14,14,0,0,0-.32-2.33A.21.21,0,0,1,9.14,4.58Zm0,5.45a3.85,3.85,0,0,0-3,.11,9.07,9.07,0,0,1,1.3-4.29A9.16,9.16,0,0,1,9.13,10ZM6.25,4.09A19.88,19.88,0,0,1,7.2.78l0-.1A15.61,15.61,0,0,1,9,7.84c-.1-.2-.19-.41-.29-.61A12.82,12.82,0,0,0,7.62,5.41a.2.2,0,0,0-.37,0,12.17,12.17,0,0,0-1.11,2.4.31.31,0,0,1,0,.1.77.77,0,0,1,0-.15A13,13,0,0,1,6.25,4.09Zm3.12,6.5-1.62,1a.09.09,0,0,1-.1,0L6,10.71H6A3.43,3.43,0,0,1,9.37,10.59ZM7.2,11.81l.12.07-.1.06-1.8,1.14a.15.15,0,0,1-.17,0l-1-.55,0-.08A5.57,5.57,0,0,1,5.46,11a.18.18,0,0,1,.23,0C6.19,11.28,6.7,11.54,7.2,11.81ZM3.05,3H3.1A7.43,7.43,0,0,1,5.63,4.67a.26.26,0,0,1,.09.26,12.36,12.36,0,0,0-.1,2.19.13.13,0,0,1,0,.06A24.26,24.26,0,0,0,3.05,3ZM2.83,6.21c-.32-.36-.68-.69-1-1l0,0,0,0c.41.17.82.33,1.21.52A8.29,8.29,0,0,1,4.87,6.85a1.19,1.19,0,0,1,.36.47c.19.47.39.95.58,1.43a1.09,1.09,0,0,1,0,.32c0,.39-.06.78-.08,1.18,0,.13-.06.17-.19.14s-.3,0-.39-.12S5.07,10,5,9.9A10.64,10.64,0,0,0,2.83,6.21ZM2.17,8c.14,0,.28,0,.42.09A5.28,5.28,0,0,1,4,8.61a.4.4,0,0,1,.13.13,8.87,8.87,0,0,1,.67,1.66.31.31,0,0,0,.28.26l.18.05-.39.34A10.48,10.48,0,0,0,2.17,8Zm-1.1,1.7.09,0a8.2,8.2,0,0,1,2.59.49.14.14,0,0,1,.08.07c.24.36.47.71.7,1.08a.15.15,0,0,1,0,.11c-.06.09-.13.17-.21.27A22.63,22.63,0,0,0,1.07,9.68Zm3,3.2.91.49-1.43.9A5.44,5.44,0,0,1,4,12.88Zm-.57,1.89,1.81-1.14a.14.14,0,0,1,.15,0l2,1.05,0,0-.1.07L5.55,15.89a.16.16,0,0,1-.2,0l-1.87-1-.12-.06Zm-.18.47,1.78,1L3.19,17.37A9.51,9.51,0,0,1,3.28,15.24Zm0,2.77,1.91,1-1.24.78A5.1,5.1,0,0,1,3.27,18Zm2.46,3.47a4.67,4.67,0,0,1-1.52-1.27.16.16,0,0,1,0-.07l.07-.06,1.27-.79a.14.14,0,0,1,.14,0l2,1,.06,0-.1.07-1.66,1A.17.17,0,0,1,5.73,21.48Zm.57.23.09-.07,1.61-1a.15.15,0,0,1,.19,0l1.72.92.08,0A4.93,4.93,0,0,1,6.3,21.71Zm4.86-.86c-.21.18-.43.33-.65.49a.13.13,0,0,1-.12,0l-1.86-1,0,0,.09-.07,1.79-1.13a.18.18,0,0,1,.2,0l1.41.76A3.84,3.84,0,0,1,11.16,20.85Zm1-1.32-1.31-.7,1.81-1.14A5.09,5.09,0,0,1,12.17,19.53Zm.53-2.48-2-1.05,1.7-1.07A9.4,9.4,0,0,1,12.7,17.05Zm-.39-2.51-1.13.7-.78.5a.17.17,0,0,1-.14,0l-2-1.05,0,0,.09-.06,1.79-1.14a.18.18,0,0,1,.2,0l1.87,1Zm-.83-1.91A7.26,7.26,0,0,1,12.15,14l-1.54-.82Zm-.37-1.18-.27-.28a.14.14,0,0,1,0-.09l.6-1.13s.05,0,.08-.07a8.25,8.25,0,0,1,2.59-.67h.06A21,21,0,0,0,11.11,11.45Z"/></svg>